<svg width="470" height="410" viewBox="0 0 470 410" fill="none" xmlns="http://www.w3.org/2000/svg">
<path d="M0.5 408C0.5 408.828 1.17157 409.5 2 409.5C2.82843 409.5 3.5 408.828 3.5 408H0.5ZM0.5 2L0.5 408H3.5L3.5 2H0.5Z" fill="black"/>
<path d="M2 2L468 2" stroke="black" stroke-width="3" stroke-linecap="round"/>
<path d="M466.5 408C466.5 408.828 467.172 409.5 468 409.5C468.828 409.5 469.5 408.828 469.5 408H466.5ZM466.5 2V408H469.5V2H466.5Z" fill="black"/>
<path d="M2 408L4.75056 396.87C14.4144 357.765 57.6084 337.457 93.8875 354.961L107.77 361.659C132.074 373.386 161.271 362.912 172.58 338.41V338.41C188.452 304.02 235.939 300.47 256.749 332.118L271.246 354.165C277.551 363.754 287 370.846 297.969 374.221V374.221C315.51 379.619 334.598 374.837 347.522 361.807L348.583 360.738C369.847 339.301 404.859 340.5 424.607 363.341L429.5 369L468 408" stroke="black" stroke-width="3"/>
</svg>
